<?xml version="1.0" encoding="utf-8"?>
<!-- Generator: Adobe Illustrator 14.0.0, SVG Export Plug-In . SVG Version: 6.00 Build 43363)  -->
<!DOCTYPE svg PUBLIC "-//W3C//DTD SVG 1.1//EN" "http://www.w3.org/Graphics/SVG/1.1/DTD/svg11.dtd">
<svg version="1.1" id="Слой_1" xmlns="http://www.w3.org/2000/svg" xmlns:xlink="http://www.w3.org/1999/xlink" x="0px" y="0px"
	 width="200px" height="200px" viewBox="0 0 200 200" enable-background="new 0 0 200 200" xml:space="preserve">
<path d="M195.634,80l-31.856-11.598L131.902,80L100.04,68.402L68.163,80l-31.86-11.596L4.442,80v40.533l31.86,11.609l31.858-11.609
	l31.878,11.609l31.86-11.609l31.875,11.609l31.856-11.609L195.634,80L195.634,80z"/>
<path fill="#28BE46" d="M195.621,16.263h0.013l-31.86-11.596l-31.877,11.597L100.038,4.667L68.16,16.264L36.302,4.667L4.442,16.263
	v40.546l31.86,11.598L68.16,56.809l31.878,11.598l31.86-11.598l31.875,11.598l31.856-11.598V16.263H195.621z"/>
<path d="M68.163,16.263l-31.874,11.61L4.427,16.263L36.289,4.667L68.163,16.263z"/>
<path d="M131.884,16.263l-31.861,11.61l-31.86-11.61l31.86-11.596L131.884,16.263z"/>
<path d="M195.621,16.263l-31.861,11.61l-31.873-11.61L163.76,4.666L195.621,16.263z"/>
<path fill="#28BE46" d="M4.427,120.531l31.86-11.596l31.875,11.596l-31.875,11.611L4.427,120.531z"/>
<path fill="#28BE46" d="M131.898,120.531l31.858-11.596l31.878,11.596l-31.878,11.611L131.898,120.531z"/>
<path fill="#28BE46" d="M131.884,80.001l-31.861,11.597l-31.86-11.597v40.532l31.86,11.611l31.861-11.611V80.001z"/>
<path d="M195.634,143.741l-31.856-11.597l-31.875,11.597l-31.861-11.597l-31.878,11.597l-31.858-11.597l-31.86,11.597v40.532
	l31.86,11.597l31.858-11.597l31.878,11.597l31.861-11.597l31.875,11.597l31.856-11.597V143.741z"/>
<path fill="#28BE46" d="M4.427,184.277l31.86-11.596l31.875,11.596l-31.875,11.598L4.427,184.277z"/>
<path fill="#28BE46" d="M131.898,184.277l31.858-11.596l31.878,11.596l-31.878,11.598L131.898,184.277z"/>
<path fill="#28BE46" d="M131.884,143.743l-31.861,11.598l-31.86-11.598v40.532l31.86,11.598l31.861-11.598V143.743z"/>
</svg>
